<svg id="Capa_1" data-name="Capa 1" xmlns="http://www.w3.org/2000/svg" xmlns:xlink="http://www.w3.org/1999/xlink" viewBox="0 0 1882 1224.71"><defs><style>.cls-1{fill:none;}.cls-2{clip-path:url(#clip-path);}.cls-3{fill:url(#Degradado_sin_nombre);}.cls-4{fill:#f7b094;}.cls-5{fill:#3d3d7a;}.cls-6{fill:#0a2033;}.cls-7{fill:#30475e;}.cls-8{fill:#fbd15b;}.cls-9{fill:#56548c;}.cls-10{fill:#ff8578;}.cls-11{fill:#f4675d;}.cls-12{fill:#e8987c;}.cls-13{fill:#6d4b35;}.cls-14{fill:#f1f2f2;}.cls-15{fill:#abb5ba;}.cls-16{fill:#8495a0;}.cls-17{fill:#141b56;}.cls-18{fill:#a5b7c6;}.cls-19{fill:url(#Degradado_sin_nombre_7);}.cls-20{fill:url(#Degradado_sin_nombre_8);}.cls-21{fill:#6a39ed;}.cls-22{fill:#95a8b5;}.cls-23{fill:#4d2fbc;}</style><clipPath id="clip-path" transform="translate(0 -264.29)"><rect class="cls-1" width="1882" height="1489"/></clipPath><radialGradient id="Degradado_sin_nombre" cx="277.23" cy="521.83" r="259.22" gradientTransform="translate(0 410)" gradientUnits="userSpaceOnUse"><stop offset="0" stop-color="#ffc8af"/><stop offset="1" stop-color="#ffbb9c"/></radialGradient><linearGradient id="Degradado_sin_nombre_7" x1="190.48" y1="517.31" x2="176.98" y2="776.18" gradientTransform="translate(0 410)" gradientUnits="userSpaceOnUse"><stop offset="0" stop-color="#606bf1"/><stop offset="1" stop-color="#58479f"/></linearGradient><linearGradient id="Degradado_sin_nombre_8" x1="348.11" y1="525.53" x2="334.62" y2="784.4" xlink:href="#Degradado_sin_nombre_7"/></defs><g class="cls-2"><path class="cls-3" d="M591.14,494.9c.5,4.9,7.3,56.9,60.3,56.9,55.7,0,46.4-55.3,46.4-55.3v-.4a53.51,53.51,0,0,0-17.4-.8V469l-63.2-35.5h-2.3v61.2a118.26,118.26,0,0,0-23.8.2Z" transform="translate(0 -264.29)"/><path class="cls-3" d="M621.84,316.4a73,73,0,0,0-19,35.4c-6.1,26.9-.3,55.3,7.4,81.2a38.6,38.6,0,0,0,5.6,12.6,45.68,45.68,0,0,0,6.9,7l33.7,29.5c7.6,6.7,54.4,12.2,63.4,5.9,34.5-24.7,41.1-96.2,34.2-132.9C742.54,294.4,664.84,272.7,621.84,316.4Z" transform="translate(0 -264.29)"/><path class="cls-4" d="M641.24,394.1c-.5-5.9-6.4-12.2-12.5-8.4s-4.8,14.3-2.2,20c2,4.4,8.7,9.4,13.4,5.2,3.8-3.5-2.1-7.6-2.4-10.8s5.6-4.9,3.2-8" transform="translate(0 -264.29)"/><path class="cls-4" d="M640.14,421.1a17.85,17.85,0,0,1-19.6-11.7,66,66,0,0,1-2.4-18.8,45.42,45.42,0,0,0-1.6,20.7c1.7,12.8,6.1,24.9,16.1,25.1S640.14,421.1,640.14,421.1Z" transform="translate(0 -264.29)"/><path class="cls-5" d="M647.84,412l.7.2c3.9.5,5.4-4.4,6-7.1a132.66,132.66,0,0,0,1.4-20.9,17.53,17.53,0,0,1,.6-5.6c2.2-5,8-8.3,9.8-13.4,2-6-3.8-12.1-1.5-18.7,3.6-10.1,16.5-12.4,25.8-12.3a291.4,291.4,0,0,1,41.6,4.9c14.6,2.3,33.3,4.4,46.2-4.9,15.5-11.2,22-40.3,10.4-56.3A37.65,37.65,0,0,0,760,264.3c-11.1-.3-20.5,6.4-30.7,9.7-8.1,2.7-16-5.1-23.6-6.6-9.5-1.9-13.6,8.7-22,8.7s-16.3-6.2-24.2-7.6c-15.9-2.9-15,13.1-25.7,18.6-6.6,3.4-15.2,1.4-21.8,4.8-5.1,2.6-5.8,7.3-6.9,12.5a138.93,138.93,0,0,1-2.5,14.1,33.16,33.16,0,0,1-7.2,9.4,34.9,34.9,0,0,0-5.9,11.3,73.36,73.36,0,0,0-3,28.7,195.16,195.16,0,0,0,12,47.1c3.5,9.9,4.8,20.1,10.1,29.4,1.4,2.5,7.8,9.8,10.2,4.4a8.1,8.1,0,0,0,.3-3.8c-.7-10.1-10.1-75.6,14.6-67.7a17.08,17.08,0,0,1,10.5,10.9,42.83,42.83,0,0,1,2.2,18.1V409a2.85,2.85,0,0,0,.2,1.6,3.4,3.4,0,0,0,1.2,1.4Z" transform="translate(0 -264.29)"/><path class="cls-4" d="M680.44,489.1c-28.1-4.4-46.6-26.8-46.6-26.8a51.28,51.28,0,0,0,48.3,39.4Z" transform="translate(0 -264.29)"/><path class="cls-6" d="M594.14,1000.7h40.2v387.2a6.72,6.72,0,0,1-2.1,5,7.12,7.12,0,0,1-5,2.1h-26.1a7.12,7.12,0,0,1-5-2.1,7.3,7.3,0,0,1-2.1-5l.1-387.2Z" transform="translate(0 -264.29)"/><path class="cls-7" d="M503.64,1006.2h221.1v6.1a27.66,27.66,0,0,1-27.5,27.6h-166a27.15,27.15,0,0,1-19.4-8.1,27.55,27.55,0,0,1-8.1-19.5l-.1-6.1Z" transform="translate(0 -264.29)"/><path class="cls-6" d="M594.14,1349h40.2v89.9a6.72,6.72,0,0,1-2.1,5,7.12,7.12,0,0,1-5,2.1h-26.1a7.17,7.17,0,0,1-7.1-7.1l.1-89.9Z" transform="translate(0 -264.29)"/><path class="cls-6" d="M822.84,1422.3a23.68,23.68,0,0,1-14.6,21.8,22.62,22.62,0,0,1-13.6,1.3,22.88,22.88,0,0,1-12-6.5,23.4,23.4,0,0,1-6.4-12.1,24.7,24.7,0,0,1,1.3-13.7,23.52,23.52,0,0,1,38.4-7.7A24.44,24.44,0,0,1,822.84,1422.3Z" transform="translate(0 -264.29)"/><path class="cls-6" d="M452.44,1422.3a23.68,23.68,0,0,1-14.6,21.8,22.62,22.62,0,0,1-13.6,1.3,22.88,22.88,0,0,1-12-6.5,23.4,23.4,0,0,1-6.4-12.1,24.7,24.7,0,0,1,1.3-13.7,23.52,23.52,0,0,1,38.4-7.7A24.44,24.44,0,0,1,452.44,1422.3Z" transform="translate(0 -264.29)"/><path class="cls-7" d="M654.64,1319h-80.9v70.9h80.9Z" transform="translate(0 -264.29)"/><path class="cls-8" d="M430.64,1373.3h367.1a25.09,25.09,0,0,1,25,25.2v8.2H405.54v-8.2a24.19,24.19,0,0,1,1.9-9.6,27.8,27.8,0,0,1,5.4-8.2,26.41,26.41,0,0,1,8.1-5.5,27.43,27.43,0,0,1,9.7-1.9Z" transform="translate(0 -264.29)"/><path class="cls-7" d="M614.24,1312.7h13.9V1047.9h-13.9Z" transform="translate(0 -264.29)"/><path class="cls-8" d="M456.24,720a15.34,15.34,0,0,1,6.7,1.2,16.83,16.83,0,0,1,5.6,3.8,15.78,15.78,0,0,1,3.6,5.8,17.57,17.57,0,0,1,1,6.8c-2.7,48.1,7.4,165.3,52,205.6,54.6,48.9,209.1,42.2,209.1,42.2s25.5,31.4-25.5,38.4-194.9,2.3-229.7-30.3c-33.6-31.6-53.6-114.3-38.6-258.1a16.4,16.4,0,0,1,5.1-10.4,17,17,0,0,1,10.7-4.5Z" transform="translate(0 -264.29)"/><path class="cls-3" d="M745.84,1312.7l-18.4,42.1,56.3,24.8,18.5-42.2Z" transform="translate(0 -264.29)"/><path class="cls-9" d="M480.24,845.1c3.5,7,253.7,0,277.4,2.3,0,0,153.2,73.4,175.1,142.1a74.45,74.45,0,0,1,2.2,27c-6.1,96.7-115.9,328.3-115.9,328.3l-16.8-7.4-56.4-24.7-8-3.5s87.1-260.3,69.7-274.3-214.6-48.9-283.2-67.5S480.24,845.1,480.24,845.1Z" transform="translate(0 -264.29)"/><path class="cls-3" d="M960.54,1323.5l-4.4,63.2h61.5l4.4-63.3Z" transform="translate(0 -264.29)"/><path class="cls-5" d="M758.84,845.2l2.3,1s256.4,36.1,298.2,108.3c27.2,46.9-25.4,390-25.4,390l-90.7.2s13.6-285.8,9-301.8c-5.1-18.2-13.8-24.8-17.4-26.6a74.45,74.45,0,0,0-2.2-27c-21.8-68.6-175.2-142-175.2-142A3.45,3.45,0,0,0,758.84,845.2Z" transform="translate(0 -264.29)"/><path class="cls-10" d="M481.44,924.1c1.8,3.8,41.7-24.8,112.7-51,81.9-30.2,157.7-20.9,163.5-25.7a4.65,4.65,0,0,0,1.3-2.1c1.9-5.2,3-18.1,3.5-36.1,0-2.9,0-6.1.2-9.3l-2.7.2L757,784.5l-214.2-81.6a857.7,857.7,0,0,1-14.4-93.1l-17.2-2.4C499.74,694.7,459,877.5,481.44,924.1Z" transform="translate(0 -264.29)"/><path class="cls-11" d="M533.64,714.1c5.7,27.5,20.4,82.3,49.4,89.7,37.8,9.6,110.9,9.1,179.4,5.4,0-2.9,0-6.1.2-9.3l-2.7.2L757,784.5l-214.2-81.6a857.7,857.7,0,0,1-14.4-93.1v.8C527.94,617.8,525,673.5,533.64,714.1Z" transform="translate(0 -264.29)"/><path class="cls-11" d="M748.34,538.7c3.8,7,9.3,81.7,12.3,156l43.8-41C785.84,617.6,748.34,538.7,748.34,538.7Z" transform="translate(0 -264.29)"/><path class="cls-4" d="M774.54,748.9c36.9,6.4,70.9,11.9,70.9,11.9v1.8c41.1-33,103.7-126.4,103.7-126.4s-18.7-22.6-23.4-28.5c-.7-.9-102.7,69.6-108,69-1.3,0-6.5-9.4-13.5-23.1l-43.8,41c.7,17.5,1.3,35.3,1.6,52C766.14,747.5,770.54,748.2,774.54,748.9Z" transform="translate(0 -264.29)"/><path class="cls-3" d="M845.44,761l.9,30.6h111.5s-11.1-43.7-41.2-43.7-41.7,16-41.7,16Z" transform="translate(0 -264.29)"/><path class="cls-4" d="M926.74,607.1l-.8.7c4.7,5.9,23.4,28.5,23.4,28.5l11.6-8.2a29.45,29.45,0,0,0,13.9,3.4,29.07,29.07,0,0,0,13.8-3.7c15.5-8.4,5.9-28.6,5.1-31.1,3,.9,21.8,16,24.5,14.3s5.1-6.9-15.7-27.5-49,5.9-49.8,5.9Z" transform="translate(0 -264.29)"/><path class="cls-4" d="M986.24,624.2s4.3,8.4-3.5,12.1a78,78,0,0,1-30.2,5.7c-6.7-.7-12-10-12-10l20.2-19h16.1Z" transform="translate(0 -264.29)"/><path class="cls-12" d="M987.44,628.3c-1.2-4.1-12.7-1.9-19.8-1.8-5.2,0-8.1-1.2-9.7-5.2s6-10.4,7.5-8.4-2.7,4.9-2.8,7.5,7.5,3.5,13.3,3.5a140.24,140.24,0,0,1,15.9,1.5Z" transform="translate(0 -264.29)"/><path class="cls-3" d="M553.74,742.6l108.9-38.8c7.9,14.9,16.4,26.2,24.8,28.3,12.7,3.4,43.6,9.1,74.6,14.6,4.1.7,8.2,1.4,12.3,2.2,36.9,6.4,70.9,11.9,70.9,11.9v3l.8,27.6v7a778.87,778.87,0,0,0-83.7,1.4c-65.4,4.7-149.7,7.5-177.6-5.7-13.1-6.2-23.5-26.6-31.8-51.8Z" transform="translate(0 -264.29)"/><path class="cls-4" d="M662.84,703.8l-109.1,38.8,4.9,14.6,108-46.5Z" transform="translate(0 -264.29)"/><path class="cls-10" d="M662.84,703.8c7.9,14.9,16.4,26.2,24.8,28.3,12.7,3.4,43.6,9.1,74.6,14.6-.3-16.7-.9-34.3-1.6-52-3-74.4-8.5-149-12.3-156-6.3-11.7-23.4-37-50.4-42.8v.4s9.3,55.3-46.4,55.3c-53,0-59.8-51.8-60.3-56.9-27.3,3.1-69.1,16.8-74.9,71.8-1.2,10.9-2.8,24.9-5,40.8l17.2,2.4s7,77.5,24.8,132.6h.4Z" transform="translate(0 -264.29)"/><path class="cls-13" d="M663.94,693.7l-43.5-105.8,32,110.1Z" transform="translate(0 -264.29)"/><path class="cls-10" d="M591.14,494.9h23.7s33.8,37.2,55.5,37.2,10-37,10-37h10.6a60,60,0,0,1,59.5,53.3c.4,3.5.8,6.8,1.1,9.8,2.3,22.5-88.6,38.9-88.6,38.9l-46.8-2.6-28.4-55.7L582,516Z" transform="translate(0 -264.29)"/><path class="cls-14" d="M877.64,1427.9c-2.1,11.4-10,19.5-21.3,17.5L705.24,1417a6.91,6.91,0,0,1-2.5-1,9,9,0,0,1-2-1.9,8,8,0,0,1-1.1-2.5,6.6,6.6,0,0,1,0-2.8l2.5-13.5s159,28,175.7,32.6Z" transform="translate(0 -264.29)"/><path class="cls-5" d="M832.64,1389.7l-4.7-4.1-8.7-7.9-4.4-4-7.7-6.9-4.7-4.4c-2.6-2.4-4.7-4.4-6.2-5.6a3.43,3.43,0,0,0-4.4,0c-6.2,5.2-26.1,17.3-62.7-5.3a3.49,3.49,0,0,0-1.3-.5,2.2,2.2,0,0,0-1.4.1,3.18,3.18,0,0,0-2.2,1.7l-21.8,42.5s159,28,175.7,32.6C872.24,1424.4,851.94,1406.8,832.64,1389.7Z" transform="translate(0 -264.29)"/><path class="cls-14" d="M1273.3,1426.5c-.3,11.6-6.8,20.8-18.3,20.5l-153.8-3.7a7,7,0,0,1-4.9-2.2,7.2,7.2,0,0,1-2-5l.3-13.7c.1,0,161.6,2.1,178.7,4.1Z" transform="translate(0 -264.29)"/><path class="cls-5" d="M1065.24,1395.9l-5.2-3.3-10.1-6.4-4.9-3.2-8.7-5.5-5.3-3.5-7-4.4a3.72,3.72,0,0,0-2.3-.5,3.09,3.09,0,0,0-2,1.1c-5.3,6.2-23.3,21.2-62.8,4.7a3.42,3.42,0,0,0-2.8,0,8.34,8.34,0,0,0-1.2.8,5,5,0,0,0-.8,1.2l-15,45.4s161.4,2.1,178.6,4.1C1109.84,1423.8,1087,1409.7,1065.24,1395.9Z" transform="translate(0 -264.29)"/><path class="cls-15" d="M1225.14,798.5l82.1-219.8h-233.8l-82.1,219.8Z" transform="translate(0 -264.29)"/><path class="cls-16" d="M976.94,798.5h14.5l82.1-219.8-13.1.6-76,199Z" transform="translate(0 -264.29)"/><path class="cls-16" d="M981.44,798.5H827.24l.4-13.9h157.3" transform="translate(0 -264.29)"/><path class="cls-16" d="M360.54,840.4h-37.2v613.3h37.2Z" transform="translate(0 -264.29)"/><path class="cls-15" d="M562.44,840.4h-37.2v613.3h37.2Z" transform="translate(0 -264.29)"/><path class="cls-16" d="M1209.24,840.4H1172v613.3h37.2Z" transform="translate(0 -264.29)"/><path class="cls-15" d="M1411,840.4h-37.2v613.3H1411Z" transform="translate(0 -264.29)"/><path class="cls-17" d="M286,842.8h1160.6a18.12,18.12,0,0,0,18.1-18.2v-8a18.1,18.1,0,0,0-18.1-18.1H286a18.1,18.1,0,0,0-18.1,18.1v8A18.18,18.18,0,0,0,286,842.8Z" transform="translate(0 -264.29)"/><path class="cls-16" d="M1268.24,601.8l-4,10.7h-46.6l4-10.7Z" transform="translate(0 -264.29)"/><path class="cls-12" d="M804.44,653.7l3.4,6.5-47.1,48.9V694.8Z" transform="translate(0 -264.29)"/><path class="cls-18" d="M0,1489H1882v-43.1H0Z" transform="translate(0 -264.29)"/><path class="cls-19" d="M140.84,1125.9c7.5,36.4,5.2,98.5,53.2,108.2,13.1,2.7,25.4-6.3,32.9-16.6,9.8-13.5,12-42,12-58.6,0-13.1-4.4-27.3-5.9-40.4-1.5-14.1-2.8-28.2-4.4-42.3-6-50.6-32.4-93.2-76.9-118.5-3.5,16.7-11.4,30.6-18.3,46.8a178.7,178.7,0,0,0-8.1,22.6c-3.7,13.5.8,27.2,4.1,40.2C134,1086.6,136.84,1106.5,140.84,1125.9Z" transform="translate(0 -264.29)"/><path class="cls-20" d="M292.64,1115.5c-8.7,36.2-36.6,91.4,2.7,120.7,10.6,7.9,25.7,5,36.8-1.1,14.6-8,28.7-32.9,35.4-47.8,5.3-11.8,7.4-26.7,11.6-39.4,4.4-13.4,9.4-26.8,13.8-40.2,16-48.5,9.9-98.3-19.9-140.2-10.2,13.6-23.2,23.1-36.3,34.6a170.52,170.52,0,0,0-16.9,17.1c-9,10.7-10.8,25-13.1,38.1C303.14,1077,297.24,1096.2,292.64,1115.5Z" transform="translate(0 -264.29)"/><path class="cls-21" d="M209.54,1087.5c-2,46-23.4,119.7,31.2,146.1,14.7,7.1,32.4,0,44.5-10,15.9-13.1,27.3-46.7,32-66.3,3.7-15.6,2.8-34.2,5.1-50.3,2.4-17.5,5.2-34.7,7.5-52.1,8.2-62.7-10.6-121.8-56.6-165.8-9.1,18.9-22.9,33.5-36.1,50.6a196.65,196.65,0,0,0-16.5,24.7c-8.7,15.1-7.3,32.9-7.3,49.5C213.34,1038.2,210.54,1063,209.54,1087.5Z" transform="translate(0 -264.29)"/><path class="cls-22" d="M179.34,1254.7l2,37.4,3.2,58.2,5.1,95.6h129l5.2-95.6,3.1-58.2,2-37.4Z" transform="translate(0 -264.29)"/><path class="cls-18" d="M181.44,1292.1l.4,7.5.4,7.8,2.4,42.9h139.3l2.3-42.9.4-7.8.4-7.5Z" transform="translate(0 -264.29)"/><path class="cls-22" d="M181.84,1299.6l.4,7.8h144l.4-7.8Z" transform="translate(0 -264.29)"/></g><path class="cls-23" d="M851.22,396.1a1.51,1.51,0,0,1-.43,1.06,1.4,1.4,0,0,1-1,.44,1.42,1.42,0,0,1-1.06-.44,1.44,1.44,0,0,1-.45-1.06,1.41,1.41,0,0,1,.45-1.05,1.49,1.49,0,0,1,1.06-.43,1.47,1.47,0,0,1,1.48,1.48Zm-2,9.45h1.45v28.33h-1.45Z" transform="translate(0 -264.29)"/><path class="cls-23" d="M887.28,412.27c-.37,4-1.76,7.12-4.16,9.27s-5.66,3.24-9.78,3.24a13.09,13.09,0,0,1-7.37-2.11,13.76,13.76,0,0,1-5-6,21.44,21.44,0,0,1-1.8-8.87v-6a21.69,21.69,0,0,1,1.75-8.93,13.78,13.78,0,0,1,5-6.09,13.13,13.13,0,0,1,7.42-2.15q6.13,0,9.75,3.23t4.19,9.24h-1.45q-.62-5.4-3.76-8.21t-8.73-2.81a11.29,11.29,0,0,0-9.19,4.3q-3.51,4.31-3.51,11.52v5.75a20.23,20.23,0,0,0,1.56,8.18,12.67,12.67,0,0,0,4.47,5.54,11.52,11.52,0,0,0,6.67,2q5.63,0,8.77-2.77c2.11-1.84,3.35-4.61,3.72-8.29Z" transform="translate(0 -264.29)"/><path class="cls-23" d="M897,402a12.23,12.23,0,0,1,4.19-5.34,10.33,10.33,0,0,1,6.12-2c3.12,0,5.43.88,6.95,2.64s2.27,4.43,2.29,8v19h-1.45v-19c0-3.11-.65-5.42-1.9-6.91s-3.25-2.24-6-2.24a9.05,9.05,0,0,0-6.51,2.67,13.62,13.62,0,0,0-3.72,6.88v18.59h-1.45V383H897Z" transform="translate(0 -264.29)"/><path class="cls-23" d="M944.46,424.24a20,20,0,0,1-.54-5.31,11.67,11.67,0,0,1-4.7,4.32,14.54,14.54,0,0,1-6.74,1.53,9.39,9.39,0,0,1-6.49-2.19,7.65,7.65,0,0,1,1.16-12.11q3.61-2.4,9.6-2.46h7.17v-4.24a7.12,7.12,0,0,0-2.3-5.67c-1.53-1.34-3.71-2-6.56-2a10.56,10.56,0,0,0-6.63,2,6.13,6.13,0,0,0-2.66,5.05l-1.45-.06a7.42,7.42,0,0,1,3.11-6,11.88,11.88,0,0,1,7.63-2.47,11.12,11.12,0,0,1,7.46,2.35,8.39,8.39,0,0,1,2.85,6.62V417.5q0,4.78.75,6.5v.24Zm-12-.91a13,13,0,0,0,7-1.83,11.22,11.22,0,0,0,4.42-5.13v-6.9h-6.71c-4.16,0-7.33.83-9.54,2.47a6.08,6.08,0,0,0-2.68,5,5.76,5.76,0,0,0,2.12,4.51A7.88,7.88,0,0,0,932.48,423.33Z" transform="translate(0 -264.29)"/><path class="cls-23" d="M958,387.34v7.85h6.6v1.45H958v20.64a8.24,8.24,0,0,0,1,4.57,3.77,3.77,0,0,0,3.37,1.48,21.07,21.07,0,0,0,2.88-.24l.24,1.37a10.09,10.09,0,0,1-3,.32q-3.17,0-4.53-1.76c-.92-1.17-1.38-3-1.4-5.55V396.64h-5.37v-1.45h5.37v-7.85Z" transform="translate(0 -264.29)"/><path class="cls-23" d="M982.57,424.78a11.7,11.7,0,0,1-6.46-1.89,13.08,13.08,0,0,1-4.61-5.2,16.06,16.06,0,0,1-1.66-7.33v-1.21a16.7,16.7,0,0,1,1.61-7.38,12.71,12.71,0,0,1,4.43-5.24,10.89,10.89,0,0,1,6.15-1.88,10.16,10.16,0,0,1,8,3.46,13.18,13.18,0,0,1,3.09,9.11v1.53H971.29v1.58a14.48,14.48,0,0,0,1.49,6.55,11.65,11.65,0,0,0,4.11,4.73,10.08,10.08,0,0,0,5.68,1.72,11.55,11.55,0,0,0,5-1,10.19,10.19,0,0,0,3.64-3l1,.72Q989,424.78,982.57,424.78ZM982,396.1a9.5,9.5,0,0,0-7.2,3.15,13.46,13.46,0,0,0-3.46,8.05h20.25V407a12.29,12.29,0,0,0-1.25-5.49,9.57,9.57,0,0,0-3.44-3.95A8.85,8.85,0,0,0,982,396.1Z" transform="translate(0 -264.29)"/><path class="cls-23" d="M1018.61,424.24a20,20,0,0,1-.54-5.31,11.67,11.67,0,0,1-4.7,4.32,14.57,14.57,0,0,1-6.74,1.53,9.39,9.39,0,0,1-6.49-2.19,7.27,7.27,0,0,1-2.45-5.71,7.36,7.36,0,0,1,3.61-6.4q3.62-2.4,9.6-2.46h7.17v-4.24a7.15,7.15,0,0,0-2.3-5.67q-2.29-2-6.56-2a10.61,10.61,0,0,0-6.64,2,6.16,6.16,0,0,0-2.66,5.05l-1.45-.06a7.43,7.43,0,0,1,3.12-6,11.88,11.88,0,0,1,7.63-2.47,11.12,11.12,0,0,1,7.46,2.35,8.42,8.42,0,0,1,2.85,6.62V417.5q0,4.78.75,6.5v.24Zm-12-.91a13,13,0,0,0,7-1.83,11.27,11.27,0,0,0,4.42-5.13v-6.9h-6.72c-4.15,0-7.33.83-9.53,2.47a6.08,6.08,0,0,0-2.68,5,5.76,5.76,0,0,0,2.12,4.51A7.88,7.88,0,0,0,1006.63,423.33Z" transform="translate(0 -264.29)"/><path class="cls-23" d="M1050.91,422l.19-.54,10-26.26h1.62l-13,34.1-.65,1.61Q1047,436,1042.18,436a5.24,5.24,0,0,1-2.14-.3l0-1.39a7.3,7.3,0,0,0,2,.24,5.51,5.51,0,0,0,3.79-1.33,10.48,10.48,0,0,0,2.6-4.32l1.77-4.8-11.57-28.89h1.58Z" transform="translate(0 -264.29)"/><path class="cls-23" d="M1091.3,423.33a10,10,0,0,0,6.52-2.09,7.78,7.78,0,0,0,2.8-5.81h1.45a9.06,9.06,0,0,1-3.25,6.79,11.24,11.24,0,0,1-7.52,2.56,10.59,10.59,0,0,1-8.66-3.95q-3.21-3.94-3.21-10.71v-1q0-6.6,3.21-10.55a10.5,10.5,0,0,1,8.61-4,10.86,10.86,0,0,1,7.63,2.76,10.13,10.13,0,0,1,3.19,7.36h-1.45a8.74,8.74,0,0,0-2.75-6.29,9.34,9.34,0,0,0-6.62-2.38,9.14,9.14,0,0,0-7.61,3.5q-2.76,3.51-2.76,9.74v.94q0,6.09,2.78,9.57A9.25,9.25,0,0,0,1091.3,423.33Z" transform="translate(0 -264.29)"/><path class="cls-23" d="M1107.15,409.15a17,17,0,0,1,1.6-7.48,12.3,12.3,0,0,1,4.51-5.17,12.25,12.25,0,0,1,17.67,5.05,17,17,0,0,1,1.65,7.44v1.29a17.19,17.19,0,0,1-1.58,7.49,12.31,12.31,0,0,1-4.5,5.16,12.28,12.28,0,0,1-17.71-5.09,16.8,16.8,0,0,1-1.64-7.4Zm1.45,1.13a15.2,15.2,0,0,0,1.44,6.64,11.26,11.26,0,0,0,4,4.72,10.38,10.38,0,0,0,5.86,1.69,10.05,10.05,0,0,0,8.1-3.73,14.46,14.46,0,0,0,3.13-9.62v-.83a15.12,15.12,0,0,0-1.45-6.61,11.54,11.54,0,0,0-4-4.74,10.32,10.32,0,0,0-5.82-1.7,10,10,0,0,0-8.11,3.79,14.44,14.44,0,0,0-3.14,9.53Z" transform="translate(0 -264.29)"/><path class="cls-23" d="M1160.4,424.24H1159v-19.5q0-4.38-1.92-6.51t-6-2.13a9.24,9.24,0,0,0-7.81,4.21,14,14,0,0,0-2.39,5.58v18.35h-1.48V395.19h1.48v6.87a12.31,12.31,0,0,1,4.21-5.48,11.15,11.15,0,0,1,12-.32,8,8,0,0,1,3,5.26,10.65,10.65,0,0,1,4.19-5,11.78,11.78,0,0,1,6.5-1.86c3.13,0,5.46.88,7,2.66s2.31,4.43,2.32,8v19h-1.45V405.41q0-4.77-1.92-7.07t-6-2.24a10.1,10.1,0,0,0-8.37,4.21,8.88,8.88,0,0,0-1.94,4.62Z" transform="translate(0 -264.29)"/><path class="cls-23" d="M1211.13,410q0,6.79-2.92,10.8a9.38,9.38,0,0,1-8,4,12.61,12.61,0,0,1-5.88-1.34,10.11,10.11,0,0,1-4-3.71v15.69h-1.45V395.19h1.45v5.18a10.51,10.51,0,0,1,4.06-4.24,11.3,11.3,0,0,1,5.8-1.48,9.49,9.49,0,0,1,8,3.91q2.93,3.9,2.92,11Zm-1.47-.56q0-6.26-2.49-9.79a8,8,0,0,0-7-3.53A10.13,10.13,0,0,0,1194,398a10.49,10.49,0,0,0-3.68,5.44V417a9.23,9.23,0,0,0,3.69,4.66,11.31,11.31,0,0,0,6.25,1.65,8,8,0,0,0,6.92-3.54Q1209.65,416.24,1209.66,409.42Z" transform="translate(0 -264.29)"/><path class="cls-23" d="M1237.8,424.24a20,20,0,0,1-.54-5.31,11.6,11.6,0,0,1-4.7,4.32,14.51,14.51,0,0,1-6.74,1.53,9.38,9.38,0,0,1-6.48-2.19,7.28,7.28,0,0,1-2.46-5.71,7.36,7.36,0,0,1,3.61-6.4q3.62-2.4,9.6-2.46h7.17v-4.24a7.15,7.15,0,0,0-2.29-5.67q-2.29-2-6.57-2a10.56,10.56,0,0,0-6.63,2,6.16,6.16,0,0,0-2.66,5.05l-1.45-.06a7.45,7.45,0,0,1,3.11-6,11.88,11.88,0,0,1,7.63-2.47,11.16,11.16,0,0,1,7.47,2.35,8.42,8.42,0,0,1,2.84,6.62V417.5q0,4.78.75,6.5v.24Zm-12-.91a13.08,13.08,0,0,0,7-1.83,11.19,11.19,0,0,0,4.41-5.13v-6.9h-6.71c-4.15,0-7.33.83-9.53,2.47a6.06,6.06,0,0,0-2.69,5,5.79,5.79,0,0,0,2.12,4.51A7.91,7.91,0,0,0,1225.82,423.33Z" transform="translate(0 -264.29)"/><path class="cls-23" d="M1260.87,396.26l-1.88-.16a8.59,8.59,0,0,0-6.2,2.4,11.94,11.94,0,0,0-3.28,6.72v19h-1.45V395.19h1.45v6a10.76,10.76,0,0,1,3.54-4.81,9.65,9.65,0,0,1,5.94-1.77,5.78,5.78,0,0,1,2,.3Z" transform="translate(0 -264.29)"/><path class="cls-23" d="M1271.05,387.34v7.85h6.6v1.45h-6.6v20.64a8.24,8.24,0,0,0,1,4.57,3.79,3.79,0,0,0,3.37,1.48,21.07,21.07,0,0,0,2.88-.24l.24,1.37a10.09,10.09,0,0,1-3,.32q-3.16,0-4.53-1.76c-.92-1.17-1.38-3-1.4-5.55V396.64h-5.37v-1.45h5.37v-7.85Z" transform="translate(0 -264.29)"/><path class="cls-23" d="M1295.65,424.78a11.7,11.7,0,0,1-6.46-1.89,13.08,13.08,0,0,1-4.61-5.2,16.06,16.06,0,0,1-1.66-7.33v-1.21a16.7,16.7,0,0,1,1.61-7.38,12.71,12.71,0,0,1,4.43-5.24,10.89,10.89,0,0,1,6.15-1.88,10.16,10.16,0,0,1,8,3.46,13.18,13.18,0,0,1,3.09,9.11v1.53h-21.78v1.58a14.48,14.48,0,0,0,1.49,6.55,11.65,11.65,0,0,0,4.11,4.73,10.11,10.11,0,0,0,5.68,1.72,11.55,11.55,0,0,0,5-1,10.19,10.19,0,0,0,3.64-3l1,.72Q1302,424.78,1295.65,424.78Zm-.54-28.68a9.5,9.5,0,0,0-7.2,3.15,13.46,13.46,0,0,0-3.46,8.05h20.25V407a12.29,12.29,0,0,0-1.25-5.49,9.57,9.57,0,0,0-3.44-3.95A8.85,8.85,0,0,0,1295.11,396.1Z" transform="translate(0 -264.29)"/><path class="cls-23" d="M980.52,453.34v7.85h6.61v1.45h-6.61v20.64a8.23,8.23,0,0,0,1,4.57,3.77,3.77,0,0,0,3.37,1.48,21.07,21.07,0,0,0,2.88-.24l.24,1.37a10.09,10.09,0,0,1-3,.32q-3.16,0-4.54-1.76t-1.39-5.55V462.64h-5.37v-1.45h5.37v-7.85Z" transform="translate(0 -264.29)"/><path class="cls-23" d="M1014.15,490.24v-4.7a9.49,9.49,0,0,1-3.76,3.83,12.5,12.5,0,0,1-6.26,1.41q-4.75,0-7.13-2.78t-2.43-8.1V461.19H996V480c0,3.08.73,5.41,2.1,7a7.4,7.4,0,0,0,6,2.38,10.91,10.91,0,0,0,6.76-2,8.89,8.89,0,0,0,3.31-5.75V461.19h1.47v29.05Z" transform="translate(0 -264.29)"/><path class="cls-23" d="M1042.7,483.13q0-5.29-9-7.2c-3.62-.77-6.13-1.76-7.55-3a6.22,6.22,0,0,1-2.12-5,6.36,6.36,0,0,1,2.7-5.26,11.23,11.23,0,0,1,7-2.07,11.87,11.87,0,0,1,7.54,2.24,7.31,7.31,0,0,1,2.85,6.06h-1.48a6,6,0,0,0-2.47-4.89,10,10,0,0,0-6.44-2,9.89,9.89,0,0,0-6,1.66,5.36,5.36,0,0,0-1.39,7.24,7.2,7.2,0,0,0,2.71,2,28.14,28.14,0,0,0,5.48,1.73,23.27,23.27,0,0,1,5.69,2,7.69,7.69,0,0,1,3,2.67,7.2,7.2,0,0,1,.94,3.77,6.57,6.57,0,0,1-2.82,5.54,12.14,12.14,0,0,1-7.39,2.09,12.89,12.89,0,0,1-7.88-2.22,6.78,6.78,0,0,1-3-5.7h1.45a6,6,0,0,0,2.7,4.76,11.71,11.71,0,0,0,6.73,1.71,10.28,10.28,0,0,0,6.32-1.81A5.35,5.35,0,0,0,1042.7,483.13Z" transform="translate(0 -264.29)"/><path class="cls-23" d="M1078.12,462.26l-1.88-.16a8.63,8.63,0,0,0-6.21,2.4,12,12,0,0,0-3.27,6.72v19h-1.45V461.19h1.45v6a10.69,10.69,0,0,1,3.54-4.81,9.65,9.65,0,0,1,5.94-1.77,5.78,5.78,0,0,1,2,.3Z" transform="translate(0 -264.29)"/><path class="cls-23" d="M1093.64,490.78a11.7,11.7,0,0,1-6.46-1.89,13.06,13.06,0,0,1-4.6-5.2,15.93,15.93,0,0,1-1.67-7.33v-1.21a16.84,16.84,0,0,1,1.61-7.38,12.78,12.78,0,0,1,4.43-5.24,10.89,10.89,0,0,1,6.15-1.88,10.16,10.16,0,0,1,8,3.46,13.18,13.18,0,0,1,3.09,9.11v1.53h-21.78v1.58a14.61,14.61,0,0,0,1.49,6.55,11.65,11.65,0,0,0,4.11,4.73,10.13,10.13,0,0,0,5.68,1.72,11.55,11.55,0,0,0,5-1,10.19,10.19,0,0,0,3.64-3l1,.72Q1100,490.78,1093.64,490.78Zm-.54-28.68a9.48,9.48,0,0,0-7.19,3.15,13.47,13.47,0,0,0-3.47,8.05h20.25V473a12.29,12.29,0,0,0-1.25-5.49,9.57,9.57,0,0,0-3.44-3.95A8.85,8.85,0,0,0,1093.1,462.1Z" transform="translate(0 -264.29)"/><path class="cls-23" d="M1120.76,489.33a10,10,0,0,0,6.52-2.09,7.78,7.78,0,0,0,2.8-5.81h1.45a9.06,9.06,0,0,1-3.25,6.79,11.24,11.24,0,0,1-7.52,2.56,10.59,10.59,0,0,1-8.66-3.95q-3.21-3.94-3.21-10.71v-1q0-6.6,3.21-10.55a10.5,10.5,0,0,1,8.61-4,10.86,10.86,0,0,1,7.63,2.76,10.13,10.13,0,0,1,3.19,7.36h-1.45a8.74,8.74,0,0,0-2.75-6.29,9.34,9.34,0,0,0-6.62-2.38,9.14,9.14,0,0,0-7.61,3.5q-2.76,3.51-2.76,9.74v.94q0,6.09,2.78,9.57A9.25,9.25,0,0,0,1120.76,489.33Z" transform="translate(0 -264.29)"/><path class="cls-23" d="M1158.28,490.24v-4.7a9.49,9.49,0,0,1-3.76,3.83,12.5,12.5,0,0,1-6.26,1.41c-3.17,0-5.54-.93-7.13-2.78s-2.39-4.55-2.43-8.1V461.19h1.45V480q.06,4.62,2.1,7a7.41,7.41,0,0,0,6,2.38,10.94,10.94,0,0,0,6.77-2,8.88,8.88,0,0,0,3.3-5.75V461.19h1.48v29.05Z" transform="translate(0 -264.29)"/><path class="cls-23" d="M1179.36,490.78a11.72,11.72,0,0,1-6.46-1.89,13.06,13.06,0,0,1-4.6-5.2,16.06,16.06,0,0,1-1.67-7.33v-1.21a16.84,16.84,0,0,1,1.61-7.38,12.8,12.8,0,0,1,4.44-5.24,10.89,10.89,0,0,1,6.15-1.88,10.13,10.13,0,0,1,7.94,3.46,13.18,13.18,0,0,1,3.09,9.11v1.53h-21.78v1.58a14.61,14.61,0,0,0,1.49,6.55,11.8,11.8,0,0,0,4.11,4.73,10.13,10.13,0,0,0,5.68,1.72,11.55,11.55,0,0,0,5-1,10.1,10.1,0,0,0,3.64-3l1,.72Q1185.76,490.78,1179.36,490.78Zm-.53-28.68a9.5,9.5,0,0,0-7.2,3.15,13.47,13.47,0,0,0-3.47,8.05h20.25V473a12.16,12.16,0,0,0-1.25-5.49,9.54,9.54,0,0,0-3.43-3.95A8.88,8.88,0,0,0,1178.83,462.1Z" transform="translate(0 -264.29)"/><path class="cls-23" d="M1209.44,462.26l-1.88-.16a8.59,8.59,0,0,0-6.2,2.4,11.94,11.94,0,0,0-3.28,6.72v19h-1.45V461.19h1.45v6a10.71,10.71,0,0,1,3.55-4.81,9.6,9.6,0,0,1,5.93-1.77,5.78,5.78,0,0,1,2,.3Z" transform="translate(0 -264.29)"/><path class="cls-23" d="M1213.17,475.42q0-7,2.93-10.86a9.48,9.48,0,0,1,8-3.91,11.19,11.19,0,0,1,5.79,1.48,10.88,10.88,0,0,1,4.07,4.4V449h1.45v41.25H1234V485.6a10.16,10.16,0,0,1-4.06,3.82,12.31,12.31,0,0,1-5.85,1.36,9.35,9.35,0,0,1-8-4q-2.92-4-2.93-11Zm1.51.56q0,6.18,2.44,9.77a7.92,7.92,0,0,0,6.93,3.58,11.31,11.31,0,0,0,6.15-1.6,9.54,9.54,0,0,0,3.79-4.68V469.43q-2.51-7.33-9.89-7.33a8,8,0,0,0-6.94,3.52Q1214.69,469.13,1214.68,476Z" transform="translate(0 -264.29)"/><path class="cls-23" d="M1242.42,475.15a17,17,0,0,1,1.6-7.48,12.3,12.3,0,0,1,4.51-5.17,12.25,12.25,0,0,1,17.67,5.05,17,17,0,0,1,1.65,7.44v1.29a17.19,17.19,0,0,1-1.58,7.49,12.31,12.31,0,0,1-4.5,5.16,12.28,12.28,0,0,1-17.71-5.09,16.8,16.8,0,0,1-1.64-7.4Zm1.45,1.13a15.2,15.2,0,0,0,1.44,6.64,11.26,11.26,0,0,0,4,4.72,10.39,10.39,0,0,0,5.87,1.69,10,10,0,0,0,8.09-3.73,14.46,14.46,0,0,0,3.13-9.62v-.83a15.12,15.12,0,0,0-1.45-6.61,11.54,11.54,0,0,0-4-4.74,10.32,10.32,0,0,0-5.82-1.7,10.05,10.05,0,0,0-8.11,3.79,14.44,14.44,0,0,0-3.14,9.53Z" transform="translate(0 -264.29)"/><path class="cls-23" d="M1292.8,483.13q0-5.29-9-7.2-5.43-1.15-7.55-3a6.22,6.22,0,0,1-2.12-5,6.36,6.36,0,0,1,2.7-5.26,11.22,11.22,0,0,1,7-2.07,11.9,11.9,0,0,1,7.55,2.24,7.32,7.32,0,0,1,2.84,6.06h-1.47a6,6,0,0,0-2.47-4.89,10.06,10.06,0,0,0-6.45-2,9.86,9.86,0,0,0-6,1.66,5.38,5.38,0,0,0-1.4,7.24,7.28,7.28,0,0,0,2.71,2,28.37,28.37,0,0,0,5.48,1.73,23.36,23.36,0,0,1,5.7,2,7.73,7.73,0,0,1,3,2.67,7.1,7.1,0,0,1,.94,3.77,6.57,6.57,0,0,1-2.82,5.54,12.12,12.12,0,0,1-7.39,2.09,12.93,12.93,0,0,1-7.88-2.22,6.79,6.79,0,0,1-3-5.7h1.45a6,6,0,0,0,2.7,4.76,11.67,11.67,0,0,0,6.72,1.71,10.31,10.31,0,0,0,6.33-1.81A5.34,5.34,0,0,0,1292.8,483.13Z" transform="translate(0 -264.29)"/><path class="cls-23" d="M1301.58,488.93a1.49,1.49,0,0,1,.43-1.06,1.41,1.41,0,0,1,1-.45,1.52,1.52,0,0,1,1.5,1.51,1.36,1.36,0,0,1-.44,1,1.45,1.45,0,0,1-1.06.43,1.47,1.47,0,0,1-1.48-1.47Zm2-9.46h-1.45V451.14h1.45Z" transform="translate(0 -264.29)"/><path class="cls-23" d="M1306.14,317.39c0,5.58,0,11.16,0,16.73a16.82,16.82,0,0,1-17.25,17.28q-16.87,0-33.76,0a16.79,16.79,0,0,1-16.77-13.69,18.58,18.58,0,0,1-.31-3.57q0-16.77,0-33.55a16.81,16.81,0,0,1,17.28-17.24h33.2c6.64,0,11.85,2.65,15.33,8.4a16.5,16.5,0,0,1,2.29,8.74c0,5.64,0,11.28,0,16.92Zm-40.77,20.79h6.9a19.68,19.68,0,0,0,5.86-.89,20.76,20.76,0,0,0,14.71-18.62,19.37,19.37,0,0,0-3.84-13.33c-5-6.65-11.62-9.52-19.86-8.53a19.64,19.64,0,0,0-12.3,6.41,20,20,0,0,0-5.47,12.22,21.39,21.39,0,0,0,1.78,10.7,34.39,34.39,0,0,1,1.73,3.43,18.87,18.87,0,0,1,.78,6.42c0,1.58.59,2.19,2.15,2.19Z" transform="translate(0 -264.29)"/></svg>