<svg xmlns="http://www.w3.org/2000/svg" viewBox="0 0 1296.79 260.69"><defs><style>.cls-1{fill:#262626;}</style></defs><g id="Capa_2" data-name="Capa 2"><g id="Capa_1-2" data-name="Capa 1"><path class="cls-1" d="M260.78,142.75q0,32,0,64.07c0,38-28.15,66.13-66,66.16q-64.65,0-129.28,0c-32.07-.08-58.21-21.49-64.24-52.42A71.12,71.12,0,0,1,0,206.85Q0,142.61,0,78.36c0-37.88,28.22-66,66.2-66q63.55-.06,127.11,0c25.44,0,45.4,10.13,58.71,32.15,6.2,10.25,8.82,21.53,8.79,33.49-.06,21.6,0,43.19,0,64.79ZM104.65,222.36h0q13.21,0,26.43,0A74.28,74.28,0,0,0,153.5,219c31.71-10.1,53.87-36.84,56.36-71.31a74.37,74.37,0,0,0-14.71-51c-19-25.45-44.53-36.48-76.06-32.69C100.44,66.15,84.6,74.84,72,88.46,59.86,101.54,52.49,117.21,51,135.28a82,82,0,0,0,6.84,41c2,4.48,5,8.37,6.61,13.14,2.66,8.06,3.19,16.25,3,24.61-.15,6,2.28,8.36,8.23,8.37Z" transform="translate(0 -12.32)"/><path class="cls-1" d="M370.42,75.7q-1.59,13.56-10,20.92T338,104q-15.13,0-24.26-10.86t-9.13-29V55.87a48.62,48.62,0,0,1,4.26-20.95A31.69,31.69,0,0,1,321,21,33.52,33.52,0,0,1,339,16.2q13.62,0,21.83,7.6t9.57,21H359.09Q357.62,34.6,352.72,30T339,25.41q-10.8,0-16.93,8T316,56.13v8.28q0,13.92,5.81,22.14T338,94.77q9.39,0,14.41-4.25t6.66-14.82Z" transform="translate(0 -12.32)"/><path class="cls-1" d="M395,47a23.07,23.07,0,0,1,18.77-8.87q20.13,0,20.31,22.71v42H423.17v-42q-.06-6.87-3.14-10.16t-9.59-3.28a15.71,15.71,0,0,0-9.27,2.81,19.12,19.12,0,0,0-6.22,7.4v45.24H384.09V12.68H395Z" transform="translate(0 -12.32)"/><path class="cls-1" d="M489.48,102.81A23,23,0,0,1,488,96.12,24.21,24.21,0,0,1,469.88,104q-9.39,0-15.4-5.31a17.18,17.18,0,0,1-6-13.47q0-9.92,7.54-15.41t21.21-5.48h10.56v-5a12.19,12.19,0,0,0-3.4-9.07q-3.4-3.37-10-3.37a15.87,15.87,0,0,0-9.74,2.93q-3.93,2.94-3.93,7.1H449.76a15,15,0,0,1,3.37-9.18,23.06,23.06,0,0,1,9.15-7A30.86,30.86,0,0,1,475,38.14q11,0,17.19,5.49t6.46,15.11V88q0,8.75,2.23,13.91v.93Zm-18-8.27a19.08,19.08,0,0,0,9.68-2.64A16,16,0,0,0,487.78,85V72h-8.51q-19.95,0-19.95,11.68a9.86,9.86,0,0,0,3.41,8A13,13,0,0,0,471.47,94.54Z" transform="translate(0 -12.32)"/><path class="cls-1" d="M530.39,23.94V39.32h11.85v8.39H530.39V87.14q0,3.81,1.58,5.72c1.06,1.28,2.86,1.91,5.4,1.91a26.15,26.15,0,0,0,5.16-.7v8.75A31.51,31.51,0,0,1,534.2,104q-7.28,0-11-4.4t-3.7-12.5V47.71H508V39.32h11.56V23.94Z" transform="translate(0 -12.32)"/><path class="cls-1" d="M555,22.48A6.45,6.45,0,0,1,556.59,18a6,6,0,0,1,4.78-1.82A6.11,6.11,0,0,1,566.18,18a6.39,6.39,0,0,1,1.65,4.46,6.19,6.19,0,0,1-1.65,4.4,6.25,6.25,0,0,1-4.81,1.76,6.18,6.18,0,0,1-4.78-1.76A6.25,6.25,0,0,1,555,22.48Zm11.73,80.33H555.86V39.32h10.85Z" transform="translate(0 -12.32)"/><path class="cls-1" d="M594.35,39.32l.35,8a23.16,23.16,0,0,1,19-9.16q20.13,0,20.3,22.71v42H623.17v-42q-.06-6.87-3.14-10.16t-9.6-3.28a15.71,15.71,0,0,0-9.27,2.81,19.2,19.2,0,0,0-6.22,7.4v45.24H584.08V39.32Z" transform="translate(0 -12.32)"/><path class="cls-1" d="M650.45,22.48A6.46,6.46,0,0,1,652.07,18a6,6,0,0,1,4.78-1.82A6.12,6.12,0,0,1,661.66,18a6.39,6.39,0,0,1,1.65,4.46,6.19,6.19,0,0,1-1.65,4.4,6.27,6.27,0,0,1-4.81,1.76,6.17,6.17,0,0,1-4.78-1.76A6.26,6.26,0,0,1,650.45,22.48Zm11.74,80.33H651.33V39.32h10.86Z" transform="translate(0 -12.32)"/><path class="cls-1" d="M694.29,23.94V39.32h11.85v8.39H694.29V87.14q0,3.81,1.58,5.72c1.06,1.28,2.86,1.91,5.4,1.91a26.14,26.14,0,0,0,5.17-.7v8.75A31.64,31.64,0,0,1,698.1,104q-7.27,0-11-4.4t-3.7-12.5V47.71H671.87V39.32h11.56V23.94Z" transform="translate(0 -12.32)"/><path class="cls-1" d="M739.59,86.91l14.79-47.59H766l-25.53,73.29q-5.93,15.86-18.83,15.85l-2.06-.18-4.05-.76v-8.8l2.94.23q5.5,0,8.6-2.23c2-1.49,3.74-4.2,5.07-8.16l2.41-6.45L711.9,39.32h11.85Z" transform="translate(0 -12.32)"/><path class="cls-1" d="M769.64,97.12a6.8,6.8,0,0,1,1.67-4.69,6.36,6.36,0,0,1,5-1.88,6.55,6.55,0,0,1,5.08,1.88,6.66,6.66,0,0,1,1.73,4.69,6.31,6.31,0,0,1-1.73,4.52,6.71,6.71,0,0,1-5.08,1.82,6.51,6.51,0,0,1-5-1.82A6.44,6.44,0,0,1,769.64,97.12Z" transform="translate(0 -12.32)"/><path class="cls-1" d="M367.48,220.86q-1.23,13.2-9.09,20.28T337,248.21a28.66,28.66,0,0,1-16.11-4.61A30.14,30.14,0,0,1,310,230.51a46.83,46.83,0,0,1-3.93-19.39v-13.2a47.75,47.75,0,0,1,3.81-19.52,30.19,30.19,0,0,1,10.89-13.29A28.64,28.64,0,0,1,337,160.42q13.38,0,21.3,7t9.15,20.19h-3.17q-1.35-11.81-8.21-17.93T337,163.59a24.67,24.67,0,0,0-20.1,9.39q-7.67,9.39-7.66,25.17v12.56a44.19,44.19,0,0,0,3.4,17.87,27.79,27.79,0,0,0,9.77,12.12A25.33,25.33,0,0,0,337,245q12.25,0,19.16-6t8.12-18.13Z" transform="translate(0 -12.32)"/><path class="cls-1" d="M388.78,198.33a26.58,26.58,0,0,1,9.16-11.68,22.59,22.59,0,0,1,13.38-4.28q10.21,0,15.17,5.78t5,17.45V247h-3.17v-41.5q-.06-10.2-4.17-15.1t-13-4.9a19.75,19.75,0,0,0-14.23,5.84,29.62,29.62,0,0,0-8.13,15V247h-3.16V156.9h3.16Z" transform="translate(0 -12.32)"/><path class="cls-1" d="M492.42,247a44.17,44.17,0,0,1-1.17-11.61A25.57,25.57,0,0,1,481,244.86a31.82,31.82,0,0,1-14.73,3.35q-8.81,0-14.18-4.79A15.89,15.89,0,0,1,446.7,231q0-8.75,7.9-14t21-5.37h15.67v-9.27q0-8-5-12.38t-14.35-4.41q-8.69,0-14.49,4.46t-5.81,11l-3.17-.12q0-7.74,6.8-13.15t16.67-5.39q10.28,0,16.31,5.13T494.41,202V232.3q0,10.45,1.65,14.21V247Zm-26.17-2a28.5,28.5,0,0,0,15.34-4,24.76,24.76,0,0,0,9.66-11.21V214.76H476.57q-13.6,0-20.83,5.4-5.87,4.4-5.87,11a12.63,12.63,0,0,0,4.64,9.86A17.19,17.19,0,0,0,466.25,245Z" transform="translate(0 -12.32)"/><path class="cls-1" d="M521.94,166.4v17.14h14.43v3.17H521.94v45.11c0,4.51.73,7.83,2.2,10s3.92,3.23,7.36,3.23a45.88,45.88,0,0,0,6.28-.53l.53,3a21.58,21.58,0,0,1-6.63.71q-6.93,0-9.92-3.85t-3-12.13V186.71H507v-3.17h11.74V166.4Z" transform="translate(0 -12.32)"/><path class="cls-1" d="M622.64,247a43.67,43.67,0,0,1-1.18-11.61,25.44,25.44,0,0,1-10.27,9.44,31.75,31.75,0,0,1-14.72,3.35q-8.81,0-14.18-4.79A15.89,15.89,0,0,1,576.92,231q0-8.75,7.9-14t21-5.37h15.66v-9.27q0-8-5-12.38t-14.35-4.41q-8.69,0-14.5,4.46t-5.81,11l-3.16-.12q0-7.74,6.8-13.15t16.67-5.39q10.26,0,16.31,5.13T624.63,202V232.3q0,10.45,1.65,14.21V247Zm-26.17-2a28.5,28.5,0,0,0,15.34-4,24.74,24.74,0,0,0,9.65-11.21V214.76H606.79q-13.6,0-20.83,5.4-5.87,4.4-5.87,11a12.63,12.63,0,0,0,4.64,9.86A17.19,17.19,0,0,0,596.47,245Z" transform="translate(0 -12.32)"/><path class="cls-1" d="M648.22,198.33a26.58,26.58,0,0,1,9.16-11.68,22.59,22.59,0,0,1,13.38-4.28q10.22,0,15.17,5.78t5,17.45V247h-3.17v-41.5q-.06-10.2-4.17-15.1t-13-4.9a19.75,19.75,0,0,0-14.23,5.84,29.62,29.62,0,0,0-8.13,15V247h-3.17V183.54h3.17Z" transform="translate(0 -12.32)"/><path class="cls-1" d="M707.9,214.64q0-15.19,6.4-23.74t17.55-8.53a24.48,24.48,0,0,1,12.64,3.22,23.65,23.65,0,0,1,8.89,9.63V156.9h3.17V247h-3.17V236.88a22,22,0,0,1-8.86,8.36,27,27,0,0,1-12.79,3,20.46,20.46,0,0,1-17.43-8.75q-6.39-8.75-6.4-24Zm3.29,1.23q0,13.5,5.34,21.34T731.67,245a24.81,24.81,0,0,0,13.44-3.49,20.73,20.73,0,0,0,8.27-10.24V201.55q-5.45-16-21.59-16a17.53,17.53,0,0,0-15.17,7.69Q711.19,200.92,711.19,215.87Z" transform="translate(0 -12.32)"/><path class="cls-1" d="M865.12,220.86q-1.23,13.2-9.1,20.28t-21.36,7.07a28.71,28.71,0,0,1-16.11-4.61,30.19,30.19,0,0,1-10.88-13.09,46.67,46.67,0,0,1-3.94-19.39v-13.2a47.75,47.75,0,0,1,3.82-19.52,30.17,30.17,0,0,1,10.88-13.29,28.69,28.69,0,0,1,16.23-4.69q13.38,0,21.3,7t9.16,20.19H862q-1.35-11.81-8.22-17.93t-19.07-6.13a24.69,24.69,0,0,0-20.1,9.39q-7.65,9.39-7.66,25.17v12.56a44.19,44.19,0,0,0,3.41,17.87,27.72,27.72,0,0,0,9.77,12.12A25.27,25.27,0,0,0,834.66,245q12.27,0,19.16-6T862,220.86Z" transform="translate(0 -12.32)"/><path class="cls-1" d="M878.44,214.05a37.14,37.14,0,0,1,3.49-16.34,26.86,26.86,0,0,1,9.86-11.3,26.26,26.26,0,0,1,14.41-4,26.1,26.1,0,0,1,24.2,15.08A36.85,36.85,0,0,1,934,213.7v2.82a37.36,37.36,0,0,1-3.46,16.37,26.76,26.76,0,0,1-9.83,11.27,27.82,27.82,0,0,1-28.81.06A26.73,26.73,0,0,1,882,233a36.8,36.8,0,0,1-3.58-16.17Zm3.17,2.47A33.27,33.27,0,0,0,884.75,231a24.66,24.66,0,0,0,8.74,10.3,22.72,22.72,0,0,0,12.82,3.7,22,22,0,0,0,17.7-8.16q6.82-8.16,6.83-21v-1.82a32.92,32.92,0,0,0-3.17-14.43,25.11,25.11,0,0,0-8.77-10.36,22.46,22.46,0,0,0-12.7-3.73,22,22,0,0,0-17.73,8.28q-6.86,8.26-6.86,20.83Z" transform="translate(0 -12.32)"/><path class="cls-1" d="M994.81,247h-3.17V204.41q-.06-9.56-4.2-14.22c-2.75-3.1-7.15-4.66-13.17-4.66q-10.44,0-17.08,9.21A30.81,30.81,0,0,0,952,206.93V247h-3.23V183.54H952v15a26.86,26.86,0,0,1,9.21-12,22.46,22.46,0,0,1,13.27-4.22q8,0,13,3.52t6.66,11.5a23.24,23.24,0,0,1,9.16-10.95,25.66,25.66,0,0,1,14.2-4.07q10.27,0,15.29,5.8t5.07,17.43V247h-3.17V205.88q0-10.44-4.19-15.45t-13.18-4.9A22.13,22.13,0,0,0,999,194.74q-3.87,5.22-4.22,10.08Z" transform="translate(0 -12.32)"/><path class="cls-1" d="M1099.68,247V236.76a20.75,20.75,0,0,1-8.22,8.37q-5.4,3.08-13.67,3.08-10.39,0-15.58-6.08t-5.31-17.69v-40.9h3.16v41q.12,10.09,4.58,15.29t13,5.19q9.09,0,14.79-4.29t7.22-12.55V183.54h3.22V247Z" transform="translate(0 -12.32)"/><path class="cls-1" d="M1126.08,198.33a26.58,26.58,0,0,1,9.16-11.68,22.59,22.59,0,0,1,13.38-4.28q10.22,0,15.17,5.78t5,17.45V247h-3.17v-41.5q-.06-10.2-4.17-15.1t-13-4.9a19.75,19.75,0,0,0-14.23,5.84,29.62,29.62,0,0,0-8.13,15V247h-3.17V183.54h3.17Z" transform="translate(0 -12.32)"/><path class="cls-1" d="M1187.82,163.7a3.17,3.17,0,0,1,.94-2.31,3,3,0,0,1,2.29-1,3.31,3.31,0,0,1,3.28,3.28,3,3,0,0,1-1,2.29,3.17,3.17,0,0,1-2.31.94,3.21,3.21,0,0,1-3.23-3.23Zm4.81,83.33h-3.17V183.54h3.17Z" transform="translate(0 -12.32)"/><path class="cls-1" d="M1220.56,166.4v17.14H1235v3.17h-14.44v45.11c0,4.51.74,7.83,2.2,10s3.93,3.23,7.37,3.23a46,46,0,0,0,6.28-.53l.53,3a21.58,21.58,0,0,1-6.63.71q-6.93,0-9.92-3.85t-3.05-12.13V186.71H1205.6v-3.17h11.74V166.4Z" transform="translate(0 -12.32)"/><path class="cls-1" d="M1270.91,242.1l.41-1.17,22-57.39h3.52l-28.4,74.53-1.41,3.52q-4.57,11.09-15.14,11.09a11.43,11.43,0,0,1-4.69-.66l-.06-3a15.91,15.91,0,0,0,4.28.53,12.07,12.07,0,0,0,8.28-2.9q3.28-2.89,5.69-9.45l3.87-10.48-25.29-63.14h3.46Z" transform="translate(0 -12.32)"/></g></g></svg>