<svg xmlns="http://www.w3.org/2000/svg" viewBox="0 0 539.33 539.06"><defs><style>.cls-1{fill:#262626;}</style></defs><g id="Capa_2" data-name="Capa 2"><g id="Capa_1-2" data-name="Capa 1"><path class="cls-1" d="M539.24,269.71q0,66.24,0,132.48C539.14,480.69,481,539,402.65,539q-133.66.09-267.33-.1C69,538.76,15,494.48,2.49,430.53A147.1,147.1,0,0,1,.05,402.26q0-132.84,0-265.7C.08,58.22,58.37.13,136.92.06Q268.34,0,399.76,0c52.61,0,93.87,21,121.41,66.48C534,87.67,539.39,111,539.33,135.74c-.11,44.65,0,89.31,0,134ZM216.41,434.34v0q27.33,0,54.65,0a153,153,0,0,0,46.35-7C383,406.39,428.82,351.1,434,279.81c2.78-38.62-7.25-74.43-30.42-105.54-39.19-52.63-92.08-75.43-157.29-67.59-38.55,4.63-71.32,22.6-97.42,50.77-25.06,27-40.29,59.44-43.33,96.82-2.39,29.42,2,57.66,14.14,84.68,4.16,9.27,10.41,17.32,13.67,27.19,5.51,16.67,6.6,33.59,6.19,50.88-.31,12.5,4.71,17.3,17,17.31Q186.46,434.36,216.41,434.34Z"/></g></g></svg>