<svg xmlns="http://www.w3.org/2000/svg" viewBox="0 0 662.54 756.62"><g id="Capa_2" data-name="Capa 2"><g id="Capa_1-2" data-name="Capa 1"><path d="M662.51,736.43C654.07,595.91,558.21,479,428.6,439.28c78.51-36.7,133-116.44,133-208.88C561.62,103.16,458.47,0,331.22,0s-230.4,103.16-230.4,230.4c0,92.44,54.52,172.18,133.12,208.88C104.33,479,8.47,595.91,0,736.43a19,19,0,0,0,19,20.19h0a19,19,0,0,0,19-17.73C47,584.82,174.87,462.7,331.22,462.7S615.48,584.82,624.58,738.89a19,19,0,0,0,37.93-2.46Zm-523.76-506c0-106.29,86.19-192.47,192.47-192.47S523.7,124.11,523.7,230.4,437.51,422.87,331.22,422.87,138.75,336.69,138.75,230.4Z"/></g></g></svg>